<?xml version="1.0" encoding="UTF-8" standalone="no" ?>
<!DOCTYPE svg PUBLIC "-//W3C//DTD SVG 1.1//EN" "http://www.w3.org/Graphics/SVG/1.1/DTD/svg11.dtd">
<svg xmlns="http://www.w3.org/2000/svg" xmlns:xlink="http://www.w3.org/1999/xlink" version="1.1" width="24" height="24" viewBox="0 0 24 24" xml:space="preserve">
<desc>Created with Fabric.js 5.3.0</desc>
<defs>
</defs>
<g transform="matrix(1 0 0 1 12 12)" id="xSmOeXqllkIY_MmM1_1LJ"  >
<path style="stroke: none; stroke-width: 1; stroke-dasharray: none; stroke-linecap: butt; stroke-dashoffset: 0; stroke-linejoin: miter; stroke-miterlimit: 4; fill: rgb(255,255,255); fill-rule: nonzero; opacity: 1;"  transform=" translate(-12, -12)" d="M 12 2.163 C 15.204 2.163 15.584 2.175 16.85 2.2329999999999997 C 20.102 2.381 21.621000000000002 3.9239999999999995 21.769000000000002 7.151999999999999 C 21.827 8.417 21.838 8.796999999999999 21.838 12.001 C 21.838 15.206 21.826 15.584999999999999 21.769000000000002 16.85 C 21.62 20.075000000000003 20.105 21.621000000000002 16.85 21.769000000000002 C 15.584000000000001 21.827 15.206000000000001 21.839000000000002 12.000000000000002 21.839000000000002 C 8.796000000000001 21.839000000000002 8.416000000000002 21.827 7.151000000000002 21.769000000000002 C 3.891000000000002 21.62 2.3800000000000017 20.07 2.232000000000002 16.849000000000004 C 2.174000000000002 15.584000000000003 2.162000000000002 15.205000000000004 2.162000000000002 12.000000000000004 C 2.162000000000002 8.796000000000003 2.175000000000002 8.417000000000003 2.232000000000002 7.151000000000003 C 2.381000000000002 3.9240000000000035 3.8960000000000017 2.3800000000000034 7.151000000000002 2.2320000000000038 C 8.417000000000002 2.175000000000004 8.796000000000001 2.163000000000004 12.000000000000002 2.163000000000004 z M 12 0 C 8.741 0 8.333 0.014 7.053 0.072 C 2.6950000000000003 0.272 0.2729999999999997 2.69 0.07299999999999951 7.0520000000000005 C 0.013999999999999513 8.333 -4.85722573273506e-16 8.741 -4.85722573273506e-16 12 C -4.85722573273506e-16 15.259 0.013999999999999515 15.668 0.07199999999999951 16.948 C 0.2719999999999995 21.306 2.6899999999999995 23.728 7.052 23.928 C 8.333 23.986 8.741 24 12 24 C 15.259 24 15.668 23.986 16.948 23.928 C 21.302 23.728 23.73 21.310000000000002 23.927 16.948 C 23.986 15.668000000000001 24 15.259 24 12 C 24 8.741 23.986 8.333 23.928 7.053 C 23.732 2.699 21.311 0.2729999999999997 16.949 0.07299999999999951 C 15.668000000000001 0.013999999999999513 15.259000000000002 -4.85722573273506e-16 12.000000000000002 -4.85722573273506e-16 z M 12 5.838 C 8.597 5.838 5.838 8.597 5.838 12 C 5.838 15.403 8.597 18.163 12 18.163 C 15.403 18.163 18.162 15.404 18.162 12 C 18.162 8.597 15.402999999999999 5.838 12 5.838 z M 12 16 C 9.791 16 8 14.21 8 12 C 8 9.791 9.791 8 12 8 C 14.209 8 16 9.791 16 12 C 16 14.21 14.209 16 12 16 z M 18.406 4.154999999999999 C 17.61 4.154999999999999 16.965 4.799999999999999 16.965 5.594999999999999 C 16.965 6.389999999999999 17.61 7.034999999999998 18.406 7.034999999999998 C 19.201 7.034999999999998 19.845 6.389999999999999 19.845 5.594999999999999 C 19.845 4.799999999999999 19.201 4.154999999999999 18.406 4.154999999999999 z" stroke-linecap="round" />
</g>
</svg>