<svg xmlns="http://www.w3.org/2000/svg" version="1.1" xmlns:xlink="http://www.w3.org/1999/xlink" xmlns:svgjs="http://svgjs.dev/svgjs" width="1500" height="359" viewBox="0 0 1500 359"><g transform="matrix(1,0,0,1,-0.9090909090909918,0.559463810811792)"><svg viewBox="0 0 396 95" data-background-color="#14293a" preserveAspectRatio="xMidYMid meet" height="359" width="1500" xmlns="http://www.w3.org/2000/svg" xmlns:xlink="http://www.w3.org/1999/xlink"><g id="tight-bounds" transform="matrix(1,0,0,1,0.2400000000000091,-0.14804752653793685)"><svg viewBox="0 0 395.52 95.2960950530759" height="95.2960950530759" width="395.52"><g><svg viewBox="0 0 395.52 95.2960950530759" height="95.2960950530759" width="395.52"><g><svg viewBox="0 0 662.3886562895001 159.5950959542967" height="95.2960950530759" width="395.52"><g><svg viewBox="0 0 395.52 159.5950959542967" height="159.5950959542967" width="395.52"><g id="textblocktransform"><svg viewBox="0 0 395.52 159.5950959542967" height="159.5950959542967" width="395.52" id="textblock"><g><svg viewBox="0 0 395.52 95.04268239677118" height="95.04268239677118" width="395.52"><g transform="matrix(1,0,0,1,0,0)"><svg width="395.52" viewBox="0.95 -38.25 161.04000000000002 38.7" height="95.04268239677118" data-palette-color="#e9e4de"><path d="M0.95-27.25L0.95-27.25Q0.95-32.05 5.2-35.05 9.45-38.05 16.55-38.05L16.55-38.05Q20.8-38.05 24-37.08 27.2-36.1 28.9-34.4L28.9-34.4Q32.3-31.05 32.3-26.7 32.3-22.35 28.83-19.43 25.35-16.5 19.95-16.5L19.95-16.5Q19.35-16.5 18.15-16.6L18.15-16.6 18.6-20.25Q25.25-20.25 25.25-26.5L25.25-26.5Q25.25-29.4 22.8-31.4L22.8-31.4Q20.25-33.5 15.2-33.5L15.2-33.5Q10.15-33.5 7.2-30.9L7.2-30.9Q5.45-29.4 5.45-27.65L5.45-27.65Q5.45-24.35 9.4-23.9L9.4-23.9 8.8-20.2Q5.35-20.35 3.15-22.4 0.95-24.45 0.95-27.25ZM18.55-30.9L18.55-30.9 16.35-16.6Q22.7-13.55 22.7-7.6L22.7-7.6Q22.7-3.25 20.43-1.48 18.15 0.3 14.95 0.3 11.75 0.3 9.95-1.35 8.15-3 8.15-5.8L8.15-5.8Q8.15-6.45 8.2-6.8L8.2-6.8 11.2-29.95Q13.8-31.2 15.6-31.2 17.4-31.2 18.55-30.9ZM16.4-4.25L16.4-4.25Q17.6-4.25 18.48-5.1 19.35-5.95 19.35-7.95L19.35-7.95Q19.35-11.5 15.95-13.55L15.95-13.55Q15.15-7.7 15.15-6.53 15.15-5.35 15.53-4.8 15.9-4.25 16.4-4.25ZM47.35-17.5L47.35-17.5Q47.35-19.7 45.32-19.7 43.3-19.7 42.1-17.1L42.1-17.1Q47.5-12.85 47.5-7.55L47.5-7.55Q47.5-3.7 45.35-1.7 43.2 0.3 39.95 0.3 36.7 0.3 35.2-1.73 33.7-3.75 33.7-6.85L33.7-6.85Q33.7-7.8 33.75-8.25L33.75-8.25 35.5-23.5Q37.3-24.05 39.15-24.05L39.15-24.05Q42.2-24.05 42.2-21.8L42.2-21.8 42.2-21.7Q44.2-24.05 47.3-24.05L47.3-24.05Q49.55-24.05 50.8-23.03 52.05-22 52.05-20.3 52.05-18.6 50.77-17.53 49.5-16.45 47.45-16.45L47.45-16.45Q47.35-16.45 47.25-16.45L47.25-16.45Q47.35-17 47.35-17.5ZM44.25-7.8Q44.25-10.7 41.25-13.6L41.25-13.6Q40.35-6.4 40.35-6.35L40.35-6.35Q40.35-4.25 42.05-4.25L42.05-4.25Q44.25-4.25 44.25-7.8L44.25-7.8ZM66.3-24.05L66.3-24.05Q70.9-24.05 73.97-21.1 77.05-18.15 77.05-13.9L77.05-13.9Q77.05-7.45 73.27-3.58 69.5 0.3 64.15 0.3 58.8 0.3 55.67-2.75 52.55-5.8 52.55-10.3L52.55-10.3Q52.55-16.6 56.4-20.3L56.4-20.3Q60.3-24.05 66.3-24.05ZM65.32-20Q62.95-20 61.34-17.3 59.75-14.6 59.59-10.5L59.59-10.5Q59.59-7.6 60.77-5.7 61.95-3.8 64.34-3.8 66.75-3.8 68.37-6.45 70-9.1 70-12.5 70-15.9 68.84-17.9L68.84-17.9Q67.7-20 65.32-20ZM79.79-26.8L79.79-26.8Q79.79-32.15 84.44-35.2 89.09-38.25 95.14-38.25L95.14-38.25Q102.89-38.25 108.74-33.8L108.74-33.8Q111.64-31.55 113.24-27.83 114.84-24.1 114.84-19.6L114.84-19.6Q114.84-10.75 109.79-5.2L109.79-5.2Q104.54 0.45 96.64 0.45L96.64 0.45Q94.89 0.45 92.94 0 90.99-0.45 89.84-1.2L89.84-1.2Q87.99 0.2 85.12 0.2 82.24 0.2 80.64-1.4 79.04-3 79.04-5.5L79.04-5.5Q79.04-11.4 87.99-15.55L87.99-15.55Q88.24-17.65 88.72-21.23 89.19-24.8 89.47-27 89.74-29.2 89.84-29.9L89.84-29.9Q91.89-31.2 94.59-31.2L94.59-31.2Q95.84-31.2 96.99-30.95L96.99-30.95 93.84-9.6Q93.39-6.75 92.59-4.85L92.59-4.85Q94.14-4.45 95.09-4.45L95.09-4.45Q100.84-4.45 103.99-8.8L103.99-8.8Q107.24-13.35 107.24-19.8L107.24-19.8Q107.24-28.05 101.29-31.65L101.29-31.65Q97.99-33.65 94.04-33.65L94.04-33.65Q88.99-33.65 86.04-30.9L86.04-30.9Q84.34-29.35 84.34-27.15L84.34-27.15Q84.34-26 85.04-24.98 85.74-23.95 87.49-23.8L87.49-23.8 86.99-20.55Q83.34-20.75 81.57-22.58 79.79-24.4 79.79-26.8ZM82.74-6.15L82.74-6.15Q82.74-4.35 84.44-4.35L84.44-4.35Q85.14-4.35 85.92-5.28 86.69-6.2 86.99-8.2L86.99-8.2 87.44-11.3Q82.74-8.65 82.74-6.15ZM125.69-11.2Q128.79-11.85 130.31-13.7 131.84-15.55 131.84-17.28 131.84-19 130.92-19.63 129.99-20.25 128.89-20.25L128.89-20.25Q126.54-20.25 124.77-17.63 122.99-15 122.99-11.38 122.99-7.75 124.72-5.98 126.44-4.2 128.99-4.2L128.99-4.2Q132.74-4.2 136.19-6.8 139.64-9.4 141.79-13.6L141.79-13.6Q142.89-12.55 143.79-11L143.79-11Q142.14-7.25 137.94-3.65L137.94-3.65Q135.84-1.9 132.97-0.8 130.09 0.3 127.04 0.3L127.04 0.3Q122.04 0.3 119.14-2.75L119.14-2.75Q116.04-6.05 116.04-11.2 116.04-16.35 119.92-20.2 123.79-24.05 129.19-24.05L129.19-24.05Q133.04-24.05 135.44-22.38 137.84-20.7 137.89-17.85L137.89-17.85Q137.89-14 134.81-11.6 131.74-9.2 126.39-8.25L126.39-8.25 125.69-11.2ZM158.51-8.95Q156.94-4.9 154.01-2.33 151.09 0.25 147.34 0.25 143.59 0.25 141.71-2.23 139.84-4.7 139.84-7.9L139.84-7.9Q139.84-8.55 139.89-9.2L139.89-9.2 141.59-23.45Q143.19-24.05 144.99-24.05L144.99-24.05Q148.29-24.05 148.29-21.6L148.29-21.6Q148.29-21.5 147.46-14.93 146.64-8.35 146.64-7.3L146.64-7.3Q146.64-4.45 149.39-4.45L149.39-4.45Q151.74-4.45 153.34-7.1L153.34-7.1Q156.14-11.9 156.29-17.95L156.29-17.95 155.84-17.95Q153.74-17.95 152.64-18.9L152.64-18.9Q151.39-20 151.39-21.55 151.39-23.1 152.34-24.05L152.34-24.05Q153.49-25.05 155.09-25.05L155.09-25.05Q158.89-25.05 159.84-21.1L159.84-21.1Q161.34-21.3 161.99-21.5L161.99-21.5 161.99-18.65 160.14-18.35 160.14-17.5Q160.09-13 158.51-8.95ZM154.24-21.55L154.24-21.55Q154.24-20.7 155.69-20.7L155.69-20.7Q155.84-20.7 155.99-20.7L155.99-20.7Q155.64-22.05 154.94-22.05 154.24-22.05 154.24-21.55Z" opacity="1" transform="matrix(1,0,0,1,0,0)" fill="#e9e4de" class="wordmark-text-0" data-fill-palette-color="primary" id="text-0"></path></svg></g></svg></g><g transform="matrix(1,0,0,1,163.310208,117.47997868627134)"><svg viewBox="0 0 232.209792 42.11511726802535" height="42.11511726802535" width="232.209792"><g transform="matrix(1,0,0,1,0,0)"><svg width="232.209792" viewBox="0.25 -38.05 291.17 52.949999999999996" height="42.11511726802535" data-palette-color="#e9e4de"><g class="slogan-text-1" data-fill-palette-color="secondary" id="text-1"><path d="M37.25-10.75L37.25-10.75 38.85-8.3Q38.1-5.6 36.8-3.75 35.5-1.9 34.05-1.1L34.05-1.1Q31.5 0.3 29.2 0.3L29.2 0.3Q25.2 0.3 23.28-2.02 21.35-4.35 21.25-8.25L21.25-8.25Q21.1-14.55 20.5-16.1 19.9-17.65 17.75-17.85L17.75-17.85 18.1-21.6Q19-21.75 19.5-22 20-22.25 20.8-23L20.8-23Q22.5-24.5 23.3-30.05L23.3-30.05Q23.95-34.25 25.98-36.15 28-38.05 30.35-38.05 32.7-38.05 34.5-36.68 36.3-35.3 36.3-32.25L36.3-32.25Q36.3-28.2 33.38-25.25 30.45-22.3 25.25-19.9L25.25-19.9Q27.05-19.05 27.9-17.05 28.75-15.05 28.85-12.85 28.95-10.65 29-8.6L29-8.6Q29.2-3.8 31.85-3.8L31.85-3.8Q34.95-3.8 37.25-10.75ZM6.1 0.3L6.1 0.3Q3.45 0.3 1.85-1.3 0.25-2.9 0.25-5.4L0.25-5.4Q0.25-11.25 9.1-15.45L9.1-15.45Q9.45-18.4 10.1-23.8L10.1-23.8Q11.35-34.9 11.6-36.7L11.6-36.7Q13.65-38 15.88-38 18.1-38 19.25-37.75L19.25-37.75 15.55-9.5Q14.05 0.3 6.1 0.3ZM32.8-31.1Q32.8-31.85 32.38-32.25 31.95-32.65 31.55-32.65 31.15-32.65 30.93-32.55 30.7-32.45 30.53-32.23 30.35-32 30.25-31.78 30.15-31.55 30.03-31.1 29.9-30.65 29.83-30.33 29.75-30 29.6-29.4 29.45-28.8 29.2-27.78 28.95-26.75 28.6-25.7L28.6-25.7Q32.8-28.4 32.8-31.1L32.8-31.1ZM3.95-6.05L3.95-6.05Q3.95-4.25 5.65-4.25L5.65-4.25Q6.35-4.25 7.13-5.18 7.9-6.1 8.2-8.1L8.2-8.1 8.6-11.2Q3.95-8.5 3.95-6.05ZM45.05-11.2Q48.15-11.85 49.67-13.7 51.2-15.55 51.2-17.28 51.2-19 50.27-19.63 49.35-20.25 48.25-20.25L48.25-20.25Q45.9-20.25 44.12-17.63 42.35-15 42.35-11.38 42.35-7.75 44.07-5.98 45.8-4.2 48.35-4.2L48.35-4.2Q52.1-4.2 55.55-6.8 59-9.4 61.15-13.6L61.15-13.6Q62.25-12.55 63.15-11L63.15-11Q61.5-7.25 57.3-3.65L57.3-3.65Q55.2-1.9 52.32-0.8 49.45 0.3 46.4 0.3L46.4 0.3Q41.4 0.3 38.5-2.75L38.5-2.75Q35.4-6.05 35.4-11.2 35.4-16.35 39.27-20.2 43.15-24.05 48.55-24.05L48.55-24.05Q52.4-24.05 54.8-22.38 57.2-20.7 57.25-17.85L57.25-17.85Q57.25-14 54.17-11.6 51.1-9.2 45.75-8.25L45.75-8.25 45.05-11.2ZM68.35-11.2Q71.45-11.85 72.97-13.7 74.5-15.55 74.5-17.28 74.5-19 73.57-19.63 72.65-20.25 71.55-20.25L71.55-20.25Q69.2-20.25 67.42-17.63 65.65-15 65.65-11.38 65.65-7.75 67.37-5.98 69.1-4.2 71.65-4.2L71.65-4.2Q75.4-4.2 78.85-6.8 82.3-9.4 84.45-13.6L84.45-13.6Q85.55-12.55 86.45-11L86.45-11Q84.8-7.25 80.6-3.65L80.6-3.65Q78.5-1.9 75.62-0.8 72.75 0.3 69.7 0.3L69.7 0.3Q64.7 0.3 61.8-2.75L61.8-2.75Q58.7-6.05 58.7-11.2 58.7-16.35 62.57-20.2 66.45-24.05 71.85-24.05L71.85-24.05Q75.7-24.05 78.1-22.38 80.5-20.7 80.55-17.85L80.55-17.85Q80.55-14 77.47-11.6 74.4-9.2 69.05-8.25L69.05-8.25 68.35-11.2ZM87.84-24.1L87.84-24.1Q91.09-24.1 91.64-22.45L91.64-22.45Q93.99-24.1 97.59-24.1 101.19-24.1 103.79-21.15 106.39-18.2 106.39-14.25L106.39-14.25Q106.39-13.7 106.34-13.1L106.34-13.1Q105.79-6.55 101.94-3.13 98.09 0.3 91.89 0.3L91.89 0.3Q90.49 0.3 88.84-0.05L88.84-0.05 87.24 13.7 80.69 13.7Q83.89-13.85 84.99-23.7L84.99-23.7Q86.04-24.1 87.84-24.1ZM99.34-13.9L99.34-13.9Q99.34-16.1 98.34-17.8 97.34-19.5 95.24-19.5L95.24-19.5Q92.39-19.5 90.89-15.8L90.89-15.8Q89.89-8.4 89.74-7.2L89.74-7.2Q89.69-5.7 90.69-4.95 91.69-4.2 93.14-4.2L93.14-4.2Q95.69-4.2 97.34-6.5L97.34-6.5Q99.34-9.35 99.34-13.9Z" fill="#e9e4de" data-fill-palette-color="primary"></path><path d="M133.71-24.1Q137.29-24.1 139.89-21.15 142.49-18.2 142.49-14.25L142.49-14.25Q142.49-13.7 142.44-13.1L142.44-13.1Q141.89-6.55 138.04-3.13 134.19 0.3 127.99 0.3L127.99 0.3Q125.49 0.2 123.64-0.6 121.79-1.4 120.89-2.6L120.89-2.6Q119.19-4.8 119.19-6.53 119.19-8.25 119.69-12.1L119.69-12.1Q120.74-20 122.69-37.65L122.69-37.65Q123.74-38.05 125.49-38.05L125.49-38.05Q129.49-38.05 129.49-35.75L129.49-35.75 127.79-22.45Q130.14-24.1 133.71-24.1ZM125.94-6.88Q125.94-5.7 126.81-4.93 127.69-4.15 129.24-4.15L129.24-4.15Q131.79-4.15 133.44-6.5L133.44-6.5Q135.44-9.35 135.44-13.9L135.44-13.9Q135.44-16.1 134.44-17.8 133.44-19.5 131.34-19.5L131.34-19.5Q128.49-19.5 126.99-16.1L126.99-16.1 126.59-13.1Q125.94-8.05 125.94-6.88ZM166.94-23.55L166.94-23.55Q164.89-7.35 164.89-6.3L164.89-6.3Q164.89-4.3 166.34-4.3L166.34-4.3Q167.64-4.3 169.16-6.08 170.69-7.85 171.59-11.4L171.59-11.4Q173.23-9.6 173.59-8.6L173.59-8.6Q172.44-3.75 169.94-1.75 167.44 0.25 164.79 0.25L164.79 0.25Q160.44 0.25 158.94-3.1L158.94-3.1Q156.34 0.25 151.99 0.25L151.99 0.25Q148.39 0.25 146.44-1.55 144.49-3.35 144.49-6.25L144.49-6.25Q144.49-6.95 144.74-8.7L144.74-8.7Q145.89-18 146.49-23.5L146.49-23.5Q148.04-24.05 149.34-24.05 150.64-24.05 151.29-23.95 151.94-23.85 152.54-23.2 153.14-22.55 153.14-21.35L153.14-21.35 151.49-8.6Q151.39-8 151.39-7.5L151.39-7.5Q151.39-4.55 154.09-4.55L154.09-4.55Q156.59-4.55 158.24-7L158.24-7Q158.24-7.55 158.34-8.75L158.34-8.75 159.99-22.05Q160.34-22.9 161.49-23.48 162.64-24.05 164.36-24.05 166.09-24.05 166.94-23.55ZM173.78-36.83Q174.93-38 176.58-38 178.23-38 179.41-36.83 180.58-35.65 180.58-34 180.58-32.35 179.41-31.2 178.23-30.05 176.58-30.05 174.93-30.05 173.78-31.2 172.63-32.35 172.63-34 172.63-35.65 173.78-36.83ZM171.73-22.15Q172.23-23.05 173.63-23.53 175.03-24 176.41-24 177.78-24 178.83-23.65L178.83-23.65Q176.88-8.6 176.88-8.45L176.88-8.45Q176.63-7.45 176.63-6.78 176.63-6.1 176.73-5.6L176.73-5.6Q176.93-4.3 178.56-4.3 180.18-4.3 181.56-6.43 182.93-8.55 183.63-11.25L183.63-11.25Q183.98-11.05 184.73-10.05 185.48-9.05 185.63-8.55L185.63-8.55Q184.63-4.55 182.23-2.1L182.23-2.1Q179.83 0.35 176.48 0.35 173.13 0.35 171.51-1.3 169.88-2.95 169.88-5.55L169.88-5.55Q169.88-6.1 169.93-6.7L169.93-6.7 171.73-22.15ZM188.26 0.35Q185.18 0.35 183.43-1.38 181.68-3.1 181.68-6.1L181.68-6.1Q181.68-6.9 184.38-29.85L184.38-29.85Q185.08-35.75 188.13-37.3L188.13-37.3Q189.53-38.05 191.48-38.05L191.48-38.05Q198.08-38.05 198.08-31.95L198.08-31.95Q198.08-31.45 198.03-30.9L198.03-30.9Q197.53-24.2 189.63-17.25L189.63-17.25Q189.38-14.8 189.08-12.5L189.08-12.5Q188.48-7.35 188.48-6.8L188.48-6.8Q188.48-4.2 190.73-4.2L190.73-4.2Q193.18-4.2 195.31-7.03 197.43-9.85 198.58-14.25L198.58-14.25Q199.03-14.1 199.83-13.43 200.63-12.75 200.93-12.25L200.93-12.25Q200.13-8.1 197.33-4.3L197.33-4.3Q195.93-2.35 193.78-1.1L193.78-1.1Q191.33 0.35 188.26 0.35ZM190.33-23.75L190.18-22.25Q194.78-27.3 194.78-31.3L194.78-31.3Q194.78-33.7 192.98-33.7L192.98-33.7Q191.83-33.6 191.46-32.2 191.08-30.8 190.76-27.65 190.43-24.5 190.33-23.75L190.33-23.75ZM215.93-36.05Q216.28-36.9 217.5-37.48 218.73-38.05 220.45-38.05 222.18-38.05 223.03-37.55L223.03-37.55Q222.53-33.65 221.43-25.3L221.43-25.3Q219.13-7.85 219.13-6.08 219.13-4.3 220.63-4.3L220.63-4.3Q221.93-4.3 223.33-5.93 224.73-7.55 225.88-11.25L225.88-11.25Q227.28-9.9 227.83-8.3L227.83-8.3Q226.03-2.35 222.18-0.6L222.18-0.6Q220.43 0.25 218.88 0.25L218.88 0.25Q214.43 0.25 212.93-2.95L212.93-2.95Q210.33 0.3 206.28 0.3 202.23 0.3 199.45-2.45 196.68-5.2 196.68-9.7L196.68-9.7Q196.68-16.25 200.53-20.15 204.38-24.05 210.28-24.05L210.28-24.05Q210.43-24.05 210.58-24.05L210.58-24.05Q212.63-24.05 214.43-23.45L214.43-23.45 215.93-36.05ZM211.03-20.15L211.03-20.15Q207.83-20.15 205.95-17.73 204.08-15.3 203.73-10.5L203.73-10.5Q203.68-10.05 203.68-9.65L203.68-9.65Q203.68-7.2 204.85-5.75 206.03-4.3 207.88-4.3L207.88-4.3Q211.03-4.3 212.63-8.75L212.63-8.75 213.93-19.5Q212.28-20.15 211.03-20.15ZM228.03-36.83Q229.18-38 230.83-38 232.48-38 233.65-36.83 234.83-35.65 234.83-34 234.83-32.35 233.65-31.2 232.48-30.05 230.83-30.05 229.18-30.05 228.03-31.2 226.88-32.35 226.88-34 226.88-35.65 228.03-36.83ZM225.98-22.15Q226.48-23.05 227.88-23.53 229.28-24 230.65-24 232.03-24 233.08-23.65L233.08-23.65Q231.13-8.6 231.13-8.45L231.13-8.45Q230.88-7.45 230.88-6.78 230.88-6.1 230.98-5.6L230.98-5.6Q231.18-4.3 232.8-4.3 234.43-4.3 235.8-6.43 237.18-8.55 237.88-11.25L237.88-11.25Q238.23-11.05 238.98-10.05 239.73-9.05 239.88-8.55L239.88-8.55Q238.88-4.55 236.48-2.1L236.48-2.1Q234.08 0.35 230.73 0.35 227.38 0.35 225.75-1.3 224.13-2.95 224.13-5.55L224.13-5.55Q224.13-6.1 224.18-6.7L224.18-6.7 225.98-22.15ZM250.02-5.6L250.02-5.6 251.22-16.75Q251.22-18.1 250.52-19 249.82-19.9 248.2-19.9 246.57-19.9 245.45-18.48 244.32-17.05 244.02-14.9L244.02-14.9Q242.22-1.2 242.12 0L242.12 0 235.37 0 238.12-23.55Q240.22-24.1 241.32-24.1L241.32-24.1Q244.67-24.1 244.82-21.65L244.82-21.65Q247.27-24.05 250.7-24.05 254.12-24.05 256.07-22.35 258.02-20.65 258.02-18.05L258.02-18.05Q258.02-17.35 257.72-15.4L257.72-15.4Q256.57-7.8 256.57-6.55L256.57-6.55Q256.57-4.25 258.12-4.25L258.12-4.25Q261.52-4.25 263.27-11.35L263.27-11.35Q264.97-9.55 265.32-8.5L265.32-8.5Q262.67 0.3 256.12 0.3L256.12 0.3Q253.02 0.3 251.52-1.6 250.02-3.5 250.02-5.6ZM275.17-24.05L275.17-24.05Q277.92-24.05 280.22-23.15L280.22-23.15Q281.77-24.1 283.47-24.1 285.17-24.1 286.17-23.65L286.17-23.65 284.37-9.55Q288.07-12.4 289.97-14.75L289.97-14.75 291.42-11.7Q288.57-8.7 283.82-5.3L283.82-5.3 282.47 5.15Q281.92 9.85 279.39 12.38 276.87 14.9 272.87 14.9L272.87 14.9Q270.57 14.9 268.37 13.4L268.37 13.4Q266.07 11.8 266.07 8.25L266.07 8.25Q266.07 3.9 270.22 0.3L270.22 0.3Q266.67 0.05 264.12-2.65 261.57-5.35 261.57-9.7L261.57-9.7Q261.57-16.25 265.42-20.15 269.27-24.05 275.17-24.05ZM275.92-20.15L275.92-20.15Q272.72-20.15 270.85-17.73 268.97-15.3 268.62-10.5L268.62-10.5Q268.57-10.05 268.57-9.65L268.57-9.65Q268.57-7.2 269.75-5.75 270.92-4.3 272.77-4.3L272.77-4.3Q275.92-4.3 277.52-8.7L277.52-8.7 278.77-19.55Q277.22-20.15 275.92-20.15ZM269.92 7.5L269.92 7.5Q269.92 8.85 270.7 9.63 271.47 10.4 272.47 10.4L272.47 10.4Q275.27 10.4 275.72 6.85L275.72 6.85 276.57-0.65Q269.92 3.3 269.92 7.5Z" fill="#99abc1" data-fill-palette-color="accent"></path></g></svg></g></svg></g></svg></g></svg></g><g transform="matrix(1,0,0,1,417.95729628950016,0.116600018908386)"><svg viewBox="0 0 244.43135999999996 159.36189591647994" height="159.36189591647994" width="244.43135999999996"><g><svg xmlns:x="http://ns.adobe.com/Extensibility/1.0/" xmlns:i="http://ns.adobe.com/AdobeIllustrator/10.0/" xmlns:graph="http://ns.adobe.com/Graphs/1.0/" xmlns="http://www.w3.org/2000/svg" xmlns:xlink="http://www.w3.org/1999/xlink" xmlns:a="http://ns.adobe.com/AdobeSVGViewerExtensions/3.0/" version="1.1" x="0" y="0" viewBox="0 17.40189328022179 100 65.19699269213245" enable-background="new 0 0 100 100" xml:space="preserve" height="159.36189591647994" width="244.43135999999996" class="icon-icon-0" data-fill-palette-color="accent" id="icon-0"><path d="M70.79 38.18l5.458-9.459-14.893-8.599c-9.7-5.599-22.125-2.279-27.729 7.43l3.25 1.877c2.583-4.484 8.317-6.02 12.804-3.432l4.867 2.808-11.725 20.31L41.2 48.181 26.199 74.158c-1.552 2.691-0.634 6.133 2.057 7.684 2.697 1.558 6.136 0.633 7.688-2.061l14.995-25.976-1.617-0.937 11.724-20.31L70.79 38.18z" fill="#99abc1" data-fill-palette-color="accent"></path><path d="M20.633 63.435c-0.473 0-0.95-0.12-1.384-0.369L1.389 52.754C0.527 52.257 0 51.34 0 50.347s0.527-1.91 1.389-2.406l17.86-10.311c1.324-0.767 3.023-0.312 3.792 1.017 0.771 1.329 0.315 3.027-1.015 3.794L8.333 50.347l13.693 7.906c1.33 0.765 1.785 2.463 1.015 3.792C22.526 62.938 21.592 63.435 20.633 63.435z" fill="#99abc1" data-fill-palette-color="accent"></path><path d="M79.361 66.212c-0.959 0-1.893-0.497-2.408-1.389-0.765-1.329-0.31-3.028 1.02-3.792l13.694-7.906L77.973 45.22c-1.329-0.768-1.784-2.466-1.02-3.794 0.771-1.329 2.468-1.784 3.797-1.017l17.861 10.311c0.857 0.497 1.389 1.414 1.389 2.406s-0.531 1.91-1.389 2.405L80.75 65.843C80.312 66.093 79.834 66.212 79.361 66.212z" fill="#99abc1" data-fill-palette-color="accent"></path></svg></g></svg></g></svg></g></svg></g><defs></defs></svg><rect width="395.52" height="95.2960950530759" fill="none" stroke="none" visibility="hidden"></rect></g></svg></g></svg>