<?xml version="1.0" encoding="UTF-8" standalone="no" ?>
<!DOCTYPE svg PUBLIC "-//W3C//DTD SVG 1.1//EN" "http://www.w3.org/Graphics/SVG/1.1/DTD/svg11.dtd">
<svg xmlns="http://www.w3.org/2000/svg" xmlns:xlink="http://www.w3.org/1999/xlink" version="1.1" width="512" height="512" viewBox="0 0 512 512" xml:space="preserve">
<desc>Created with Fabric.js 5.3.0</desc>
<defs>
</defs>
<g transform="matrix(1 0 0 1 256 256)" id="6fEPu5a3FY3178fkaG8yJ"  >
<path style="stroke: none; stroke-width: 1; stroke-dasharray: none; stroke-linecap: butt; stroke-dashoffset: 0; stroke-linejoin: miter; stroke-miterlimit: 4; fill: rgb(255,255,255); fill-rule: nonzero; opacity: 1;"  transform=" translate(-256.0007269551, -255.95)" d="M 490.7 64.8 L 478.4 47.4 C 459.9 60.5 439.29999999999995 70.5 417.59999999999997 77 L 423.79999999999995 97.4 L 439.9 83.4 C 416.79999999999995 56.900000000000006 384.2 43.2 351.59999999999997 43.2 C 324.49999999999994 43.2 296.99999999999994 52.7 274.9 71.9 L 274.9 71.9 C 249.29999999999998 94.10000000000001 234.7 126.30000000000001 234.7 160.10000000000002 L 234.7 160.10000000000002 L 234.7 161.70000000000002 L 256 161.4 L 234.7 161.4 L 234.7 182.70000000000002 L 256 182.70000000000002 L 255.4 161.4 L 250.1 161.5 C 183.1 161.5 120.1 128.9 81.5 73.9 C 77.1 67.60000000000001 69.6 64.2 62 64.9 C 54.3 65.60000000000001 47.7 70.4 44.6 77.5 C 44 79.1 24 123.7 23.900000000000002 182.6 C 23.900000000000002 215.7 30.400000000000002 253.6 51.5 289.6 C 72.5 325.6 107.9 359 162.2 383 L 170.89999999999998 363.5 L 158.89999999999998 345.8 C 121 371.4 76.6 385 31.2 385 C 28.2 385 25.2 384.9 22.2 384.8 C 12.399999999999999 384.40000000000003 3.5 390.90000000000003 0.8000000000000007 400.40000000000003 C -1.8999999999999986 409.90000000000003 2.4 420 11 424.8 C 64.4 454.5 121.2 468.7 176.1 468.7 C 253.3 468.7 326.9 440.3 381.1 387.2 C 435.3 334.09999999999997 469.5 256.29999999999995 469.40000000000003 160.79999999999998 L 469.40000000000003 160.7 C 469.40000000000003 153.39999999999998 468.70000000000005 146.2 467.3 139.1 L 446.3 143.1 L 461.3 158.29999999999998 C 485.90000000000003 133.99999999999997 503.2 103.39999999999998 511.40000000000003 69.89999999999998 C 513.5 61.299999999999976 510.00000000000006 52.199999999999974 502.70000000000005 47.199999999999974 C 495.40000000000003 42.199999999999974 485.70000000000005 42.299999999999976 478.40000000000003 47.39999999999998 L 490.7 64.8 L 470 59.8 C 463.7 85.69999999999999 450.3 109.3 431.4 128 C 426.29999999999995 133 424.09999999999997 140.2 425.4 147.2 C 426.29999999999995 151.7 426.7 156.39999999999998 426.7 161 L 426.7 160.9 C 426.59999999999997 246.4 396.9 311.9 351.2 356.9 C 305.4 401.79999999999995 243 426.2 176.1 426.2 C 128.6 426.2 79 413.9 31.69999999999999 387.59999999999997 L 21.29999999999999 406.2 L 20.49999999999999 427.5 C 24.09999999999999 427.6 27.69999999999999 427.7 31.19999999999999 427.7 C 85.1 427.7 137.89999999999998 411.5 182.6 381.2 C 189 376.8 192.6 369.4 191.9 361.7 C 191.20000000000002 354 186.4 347.3 179.3 344.09999999999997 C 131.9 322.9 104.60000000000001 296.09999999999997 88.20000000000002 268.19999999999993 C 71.90000000000002 240.19999999999993 66.50000000000001 210.29999999999993 66.40000000000002 182.69999999999993 C 66.40000000000002 158.19999999999993 70.70000000000002 135.89999999999992 75.10000000000002 119.89999999999993 C 77.30000000000003 111.89999999999993 79.50000000000003 105.49999999999993 81.00000000000003 101.09999999999994 C 81.80000000000003 98.89999999999993 82.40000000000003 97.29999999999994 82.90000000000003 96.19999999999993 L 83.40000000000003 95.09999999999994 L 83.50000000000003 94.89999999999993 L 80.50000000000003 93.59999999999994 L 83.50000000000003 94.89999999999993 L 83.50000000000003 94.89999999999993 L 80.50000000000003 93.59999999999994 L 83.50000000000003 94.89999999999993 L 64 86.1 L 46.5 98.4 C 93.2 164.8 169.2 204.2 250.1 204.2 C 252.2 204.2 254.4 204.2 256.5 204.1 C 268.1 203.79999999999998 277.3 194.4 277.3 182.79999999999998 L 277.3 161.49999999999997 L 277.3 161.19999999999996 L 277.3 160.19999999999996 C 277.3 138.69999999999996 286.6 118.29999999999995 302.8 104.19999999999996 L 302.8 104.19999999999996 C 317 91.9 334.2 86 351.5 85.9 C 372.3 85.9 392.8 94.5 407.6 111.4 C 413.1 117.7 421.8 120.2 429.90000000000003 117.80000000000001 C 456 110 480.7 98 503 82.2 L 490.7 64.8 L 470 59.8 L 490.7 64.8 z" stroke-linecap="round" />
</g>
</svg>